<?xml version="1.0" encoding="UTF-8"?>
<svg xmlns="http://www.w3.org/2000/svg"
     xmlns:xlink="http://www.w3.org/1999/xlink"
     xmlns:gadfly="http://www.gadflyjl.org/ns"
     version="1.2"
     width="203.2mm" height="101.6mm" viewBox="0 0 203.2 101.6"
     stroke="none"
     fill="#000000"
     stroke-width="0.3"
     font-size="3.88"
>
<defs>
  <marker id="arrow" markerWidth="15" markerHeight="7" refX="5" refY="3.5" orient="auto" markerUnits="strokeWidth">
    <path d="M0,0 L15,3.5 L0,7 z" stroke="context-stroke" fill="context-stroke"/>
  </marker>
</defs>
<g class="plotroot xscalable yscalable" id="img-9e2568fd-1">
  <g font-size="3.88" font-family="'PT Sans','Helvetica Neue','Helvetica',sans-serif" fill="#564A55" stroke="#000000" stroke-opacity="0.000" id="img-9e2568fd-2">
    <g transform="translate(109.75,89.99)">
      <g class="primitive">
        <text text-anchor="middle" dy="0.6em">#episodes</text>
      </g>
    </g>
  </g>
  <g class="guide xlabels" font-size="2.82" font-family="'PT Sans Caption','Helvetica Neue','Helvetica',sans-serif" fill="#6C606B" id="img-9e2568fd-3">
    <g transform="translate(23.31,83.32)">
      <g class="primitive">
        <text text-anchor="middle" dy="0.6em">0</text>
      </g>
    </g>
    <g transform="translate(66.53,83.32)">
      <g class="primitive">
        <text text-anchor="middle" dy="0.6em">20</text>
      </g>
    </g>
    <g transform="translate(109.75,83.32)">
      <g class="primitive">
        <text text-anchor="middle" dy="0.6em">40</text>
      </g>
    </g>
    <g transform="translate(152.98,83.32)">
      <g class="primitive">
        <text text-anchor="middle" dy="0.6em">60</text>
      </g>
    </g>
    <g transform="translate(196.2,83.32)">
      <g class="primitive">
        <text text-anchor="middle" dy="0.6em">80</text>
      </g>
    </g>
  </g>
  <g clip-path="url(#img-9e2568fd-4)">
    <g id="img-9e2568fd-5">
      <g pointer-events="visible" fill="#000000" fill-opacity="0.000" stroke="#000000" stroke-opacity="0.000" class="guide background" id="img-9e2568fd-6">
        <g transform="translate(109.75,43.66)" id="img-9e2568fd-7">
          <path d="M-88.45,-38.66 L 88.45 -38.66 88.45 38.66 -88.45 38.66 z" class="primitive"/>
        </g>
      </g>
      <g class="guide ygridlines xfixed" stroke-dasharray="0.5,0.5" stroke-width="0.2" stroke="#D0D0E0" id="img-9e2568fd-8">
        <g transform="translate(109.75,80.31)" id="img-9e2568fd-9">
          <path fill="none" d="M-88.45,0 L 88.45 0" class="primitive"/>
        </g>
        <g transform="translate(109.75,55.88)" id="img-9e2568fd-10">
          <path fill="none" d="M-88.45,0 L 88.45 0" class="primitive"/>
        </g>
        <g transform="translate(109.75,31.44)" id="img-9e2568fd-11">
          <path fill="none" d="M-88.45,0 L 88.45 0" class="primitive"/>
        </g>
        <g transform="translate(109.75,7)" id="img-9e2568fd-12">
          <path fill="none" d="M-88.45,0 L 88.45 0" class="primitive"/>
        </g>
      </g>
      <g class="guide xgridlines yfixed" stroke-dasharray="0.5,0.5" stroke-width="0.2" stroke="#D0D0E0" id="img-9e2568fd-13">
        <g transform="translate(23.31,43.66)" id="img-9e2568fd-14">
          <path fill="none" d="M0,-38.66 L 0 38.66" class="primitive"/>
        </g>
        <g transform="translate(66.53,43.66)" id="img-9e2568fd-15">
          <path fill="none" d="M0,-38.66 L 0 38.66" class="primitive"/>
        </g>
        <g transform="translate(109.75,43.66)" id="img-9e2568fd-16">
          <path fill="none" d="M0,-38.66 L 0 38.66" class="primitive"/>
        </g>
        <g transform="translate(152.98,43.66)" id="img-9e2568fd-17">
          <path fill="none" d="M0,-38.66 L 0 38.66" class="primitive"/>
        </g>
        <g transform="translate(196.2,43.66)" id="img-9e2568fd-18">
          <path fill="none" d="M0,-38.66 L 0 38.66" class="primitive"/>
        </g>
      </g>
      <g class="plotpanel" id="img-9e2568fd-19">
        <metadata>
          <boundingbox value="21.305000000000007mm 5.0mm 176.89499999999998mm 77.315mm"/>
          <unitbox value="-0.9254171607044738 1540.9193207392757 81.85083432140894 -1581.8386414785516"/>
        </metadata>
        <g stroke-width="0.3" fill="#000000" fill-opacity="0.000" class="geometry" id="img-9e2568fd-20">
          <g class="color_LCHab{Float32}(70.0f0,60.0f0,240.0f0)" stroke-dasharray="none" stroke="#00BFFF" id="img-9e2568fd-21">
            <g transform="translate(110.83,51.42)" id="img-9e2568fd-22">
              <path fill="none" d="M-85.37,28.9 L -83.21 28.9 -81.04 28.9 -78.88 28.9 -76.72 28.9 -74.56 28.9 -72.4 28.9 -70.24 28.9 -68.08 28.9 -65.92 28.9 -63.76 28.9 -61.59 -17.64 -59.43 -14.94 -57.27 -19.24 -55.11 -26.13 -52.95 -17.28 -50.79 -14.1 -48.63 -24.08 -46.47 -16.19 -44.3 -11.4 -42.14 -14.2 -39.98 -8.55 -37.82 1.21 -35.66 -0.14 -33.5 0.93 -31.34 -4.75 -29.18 -9.83 -27.01 0.09 -24.85 -14.73 -22.69 -1.52 -20.53 3.02 -18.37 -10.7 -16.21 -7.58 -14.05 -11.31 -11.89 -2.8 -9.73 2.69 -7.56 -6.86 -5.4 -4.4 -3.24 -0.12 -1.08 -7.96 1.08 -2.64 3.24 -20.12 5.4 -9.07 7.56 -4.25 9.73 1.51 11.89 2.87 14.05 -3.4 16.21 -2.64 18.37 -3.34 20.53 6.32 22.69 -1.74 24.85 0.95 27.01 4.11 29.18 -4.93 31.34 -6.86 33.5 -1.59 35.66 4.22 37.82 -1.98 39.98 -5.76 42.14 -6.19 44.3 -3.67 46.47 3.92 48.63 -2.25 50.79 7.88 52.95 -5.57 55.11 3.62 57.27 3.94 59.43 5.73 61.59 -3.26 63.76 -0.51 65.92 -5.28 68.08 -1.74 70.24 0.95 72.4 3.6 74.56 -9.36 76.72 7.46 78.88 9.1 81.04 2.32 83.21 -3.4 85.37 -18.33" class="primitive"/>
            </g>
          </g>
        </g>
      </g>
    </g>
  </g>
  <g class="guide ylabels" font-size="2.82" font-family="'PT Sans Caption','Helvetica Neue','Helvetica',sans-serif" fill="#6C606B" id="img-9e2568fd-23">
    <g transform="translate(20.3,80.31)" id="img-9e2568fd-24">
      <g class="primitive">
        <text text-anchor="end" dy="0.35em">0</text>
      </g>
    </g>
    <g transform="translate(20.3,55.88)" id="img-9e2568fd-25">
      <g class="primitive">
        <text text-anchor="end" dy="0.35em">500</text>
      </g>
    </g>
    <g transform="translate(20.3,31.44)" id="img-9e2568fd-26">
      <g class="primitive">
        <text text-anchor="end" dy="0.35em">1000</text>
      </g>
    </g>
    <g transform="translate(20.3,7)" id="img-9e2568fd-27">
      <g class="primitive">
        <text text-anchor="end" dy="0.35em">1500</text>
      </g>
    </g>
  </g>
  <g font-size="3.88" font-family="'PT Sans','Helvetica Neue','Helvetica',sans-serif" fill="#564A55" stroke="#000000" stroke-opacity="0.000" id="img-9e2568fd-28">
    <g transform="translate(8.81,41.66)" id="img-9e2568fd-29">
      <g class="primitive">
        <text text-anchor="middle" dy="0.35em" transform="rotate(-90,0, 2)">Episodic Loss</text>
      </g>
    </g>
  </g>
</g>
<defs>
  <clipPath id="img-9e2568fd-4">
    <path d="M21.31,5 L 198.2 5 198.2 82.32 21.31 82.32" />
  </clipPath>
</defs>
</svg>
