<?xml version="1.0" encoding="UTF-8"?>
<svg xmlns="http://www.w3.org/2000/svg"
     xmlns:xlink="http://www.w3.org/1999/xlink"
     xmlns:gadfly="http://www.gadflyjl.org/ns"
     version="1.2"
     width="203.2mm" height="101.6mm" viewBox="0 0 203.2 101.6"
     stroke="none"
     fill="#000000"
     stroke-width="0.3"
     font-size="3.88"
>
<defs>
  <marker id="arrow" markerWidth="15" markerHeight="7" refX="5" refY="3.5" orient="auto" markerUnits="strokeWidth">
    <path d="M0,0 L15,3.5 L0,7 z" stroke="context-stroke" fill="context-stroke"/>
  </marker>
</defs>
<g class="plotroot xscalable yscalable" id="img-b6228589-1">
  <g font-size="3.88" font-family="'PT Sans','Helvetica Neue','Helvetica',sans-serif" fill="#564A55" stroke="#000000" stroke-opacity="0.000" id="img-b6228589-2">
    <g transform="translate(108.64,89.99)">
      <g class="primitive">
        <text text-anchor="middle" dy="0.6em">#episodes</text>
      </g>
    </g>
  </g>
  <g class="guide xlabels" font-size="2.82" font-family="'PT Sans Caption','Helvetica Neue','Helvetica',sans-serif" fill="#6C606B" id="img-b6228589-3">
    <g transform="translate(21.07,83.32)">
      <g class="primitive">
        <text text-anchor="middle" dy="0.6em">0</text>
      </g>
    </g>
    <g transform="translate(64.85,83.32)">
      <g class="primitive">
        <text text-anchor="middle" dy="0.6em">20</text>
      </g>
    </g>
    <g transform="translate(108.64,83.32)">
      <g class="primitive">
        <text text-anchor="middle" dy="0.6em">40</text>
      </g>
    </g>
    <g transform="translate(152.42,83.32)">
      <g class="primitive">
        <text text-anchor="middle" dy="0.6em">60</text>
      </g>
    </g>
    <g transform="translate(196.2,83.32)">
      <g class="primitive">
        <text text-anchor="middle" dy="0.6em">80</text>
      </g>
    </g>
  </g>
  <g clip-path="url(#img-b6228589-4)">
    <g id="img-b6228589-5">
      <g pointer-events="visible" fill="#000000" fill-opacity="0.000" stroke="#000000" stroke-opacity="0.000" class="guide background" id="img-b6228589-6">
        <g transform="translate(108.64,43.66)" id="img-b6228589-7">
          <path d="M-89.56,-38.66 L 89.56 -38.66 89.56 38.66 -89.56 38.66 z" class="primitive"/>
        </g>
      </g>
      <g class="guide ygridlines xfixed" stroke-dasharray="0.5,0.5" stroke-width="0.2" stroke="#D0D0E0" id="img-b6228589-8">
        <g transform="translate(108.64,80.32)" id="img-b6228589-9">
          <path fill="none" d="M-89.56,0 L 89.56 0" class="primitive"/>
        </g>
        <g transform="translate(108.64,55.88)" id="img-b6228589-10">
          <path fill="none" d="M-89.56,0 L 89.56 0" class="primitive"/>
        </g>
        <g transform="translate(108.64,31.44)" id="img-b6228589-11">
          <path fill="none" d="M-89.56,0 L 89.56 0" class="primitive"/>
        </g>
        <g transform="translate(108.64,7)" id="img-b6228589-12">
          <path fill="none" d="M-89.56,0 L 89.56 0" class="primitive"/>
        </g>
      </g>
      <g class="guide xgridlines yfixed" stroke-dasharray="0.5,0.5" stroke-width="0.2" stroke="#D0D0E0" id="img-b6228589-13">
        <g transform="translate(21.07,43.66)" id="img-b6228589-14">
          <path fill="none" d="M0,-38.66 L 0 38.66" class="primitive"/>
        </g>
        <g transform="translate(64.85,43.66)" id="img-b6228589-15">
          <path fill="none" d="M0,-38.66 L 0 38.66" class="primitive"/>
        </g>
        <g transform="translate(108.64,43.66)" id="img-b6228589-16">
          <path fill="none" d="M0,-38.66 L 0 38.66" class="primitive"/>
        </g>
        <g transform="translate(152.42,43.66)" id="img-b6228589-17">
          <path fill="none" d="M0,-38.66 L 0 38.66" class="primitive"/>
        </g>
        <g transform="translate(196.2,43.66)" id="img-b6228589-18">
          <path fill="none" d="M0,-38.66 L 0 38.66" class="primitive"/>
        </g>
      </g>
      <g class="plotpanel" id="img-b6228589-19">
        <metadata>
          <boundingbox value="19.071666666666687mm 5.0mm 179.12833333333333mm 77.315mm"/>
          <unitbox value="-0.9136157294174747 -17.91816135852145 81.82723145883494 -3.163677282957103"/>
        </metadata>
        <g stroke-width="0.3" fill="#000000" fill-opacity="0.000" class="geometry" id="img-b6228589-20">
          <g class="color_LCHab{Float32}(70.0f0,60.0f0,240.0f0)" stroke-dasharray="none" stroke="#00BFFF" id="img-b6228589-21">
            <g transform="translate(109.73,64.12)" id="img-b6228589-22">
              <path fill="none" d="M-86.47,16.19 L -84.28 -8.25 -82.09 -57.12 -79.9 -8.25 -77.71 16.19 -75.52 16.19 -73.33 16.19 -71.15 16.19 -68.96 16.19 -66.77 16.19 -64.58 -8.25 -62.39 16.19 -60.2 -8.25 -58.01 16.19 -55.82 -8.25 -53.63 -8.25 -51.44 -8.25 -49.25 -8.25 -47.07 -8.25 -44.88 16.19 -42.69 16.19 -40.5 16.19 -38.31 16.19 -36.12 16.19 -33.93 16.19 -31.74 16.19 -29.55 -32.69 -27.36 16.19 -25.17 -8.25 -22.99 -32.69 -20.8 16.19 -18.61 16.19 -16.42 -32.69 -14.23 -57.12 -12.04 16.19 -9.85 16.19 -7.66 -57.12 -5.47 16.19 -3.28 16.19 -1.09 -8.25 1.09 -32.69 3.28 -32.69 5.47 -8.25 7.66 -8.25 9.85 16.19 12.04 16.19 14.23 -32.69 16.42 16.19 18.61 16.19 20.8 16.19 22.99 16.19 25.17 16.19 27.36 16.19 29.55 16.19 31.74 -8.25 33.93 -8.25 36.12 16.19 38.31 -8.25 40.5 -32.69 42.69 -8.25 44.88 16.19 47.07 -8.25 49.25 -8.25 51.44 16.19 53.63 -8.25 55.82 16.19 58.01 16.19 60.2 16.19 62.39 -32.69 64.58 16.19 66.77 16.19 68.96 -8.25 71.15 16.19 73.33 16.19 75.52 -32.69 77.71 16.19 79.9 16.19 82.09 -8.25 84.28 -32.69 86.47 -32.69" class="primitive"/>
            </g>
          </g>
        </g>
      </g>
    </g>
  </g>
  <g class="guide ylabels" font-size="2.82" font-family="'PT Sans Caption','Helvetica Neue','Helvetica',sans-serif" fill="#6C606B" id="img-b6228589-23">
    <g transform="translate(18.07,80.32)" id="img-b6228589-24">
      <g class="primitive">
        <text text-anchor="end" dy="0.35em">-21</text>
      </g>
    </g>
    <g transform="translate(18.07,55.88)" id="img-b6228589-25">
      <g class="primitive">
        <text text-anchor="end" dy="0.35em">-20</text>
      </g>
    </g>
    <g transform="translate(18.07,31.44)" id="img-b6228589-26">
      <g class="primitive">
        <text text-anchor="end" dy="0.35em">-19</text>
      </g>
    </g>
    <g transform="translate(18.07,7)" id="img-b6228589-27">
      <g class="primitive">
        <text text-anchor="end" dy="0.35em">-18</text>
      </g>
    </g>
  </g>
  <g font-size="3.88" font-family="'PT Sans','Helvetica Neue','Helvetica',sans-serif" fill="#564A55" stroke="#000000" stroke-opacity="0.000" id="img-b6228589-28">
    <g transform="translate(8.81,41.66)" id="img-b6228589-29">
      <g class="primitive">
        <text text-anchor="middle" dy="0.35em" transform="rotate(-90,0, 2)">Episodic Rewards</text>
      </g>
    </g>
  </g>
</g>
<defs>
  <clipPath id="img-b6228589-4">
    <path d="M19.07,5 L 198.2 5 198.2 82.32 19.07 82.32" />
  </clipPath>
</defs>
</svg>
